<mxfile host="app.diagrams.net" agent="Mozilla/5.0 (Windows NT 10.0; Win64; x64) AppleWebKit/537.36 (KHTML, like Gecko) Chrome/136.0.0.0 Safari/537.36" version="26.2.14">
  <diagram name="第 1 页" id="KrrP0iw_zQWmprqno4K5">
    <mxGraphModel dx="1311" dy="766" grid="1" gridSize="10" guides="1" tooltips="1" connect="1" arrows="1" fold="1" page="1" pageScale="1" pageWidth="827" pageHeight="1169" math="0" shadow="0">
      <root>
        <mxCell id="0" />
        <mxCell id="1" parent="0" />
        <mxCell id="P6TgPcZEq9YdueseD8OS-7" value="" style="edgeStyle=orthogonalEdgeStyle;rounded=0;orthogonalLoop=1;jettySize=auto;html=1;" edge="1" parent="1" source="P6TgPcZEq9YdueseD8OS-2" target="P6TgPcZEq9YdueseD8OS-4">
          <mxGeometry relative="1" as="geometry" />
        </mxCell>
        <mxCell id="P6TgPcZEq9YdueseD8OS-10" style="edgeStyle=orthogonalEdgeStyle;rounded=0;orthogonalLoop=1;jettySize=auto;html=1;exitX=0.5;exitY=1;exitDx=0;exitDy=0;exitPerimeter=0;entryX=0.5;entryY=0;entryDx=0;entryDy=0;" edge="1" parent="1" source="P6TgPcZEq9YdueseD8OS-2" target="P6TgPcZEq9YdueseD8OS-3">
          <mxGeometry relative="1" as="geometry" />
        </mxCell>
        <mxCell id="P6TgPcZEq9YdueseD8OS-11" style="edgeStyle=orthogonalEdgeStyle;rounded=0;orthogonalLoop=1;jettySize=auto;html=1;exitX=0.5;exitY=1;exitDx=0;exitDy=0;exitPerimeter=0;entryX=0.5;entryY=0;entryDx=0;entryDy=0;" edge="1" parent="1" source="P6TgPcZEq9YdueseD8OS-2" target="P6TgPcZEq9YdueseD8OS-5">
          <mxGeometry relative="1" as="geometry" />
        </mxCell>
        <mxCell id="P6TgPcZEq9YdueseD8OS-2" value="Start" style="strokeWidth=2;html=1;shape=mxgraph.flowchart.start_1;whiteSpace=wrap;" vertex="1" parent="1">
          <mxGeometry x="500" y="130" width="100" height="60" as="geometry" />
        </mxCell>
        <mxCell id="P6TgPcZEq9YdueseD8OS-40" style="edgeStyle=orthogonalEdgeStyle;rounded=0;orthogonalLoop=1;jettySize=auto;html=1;exitX=0.5;exitY=1;exitDx=0;exitDy=0;entryX=0.5;entryY=0;entryDx=0;entryDy=0;" edge="1" parent="1" source="P6TgPcZEq9YdueseD8OS-3" target="P6TgPcZEq9YdueseD8OS-39">
          <mxGeometry relative="1" as="geometry" />
        </mxCell>
        <mxCell id="P6TgPcZEq9YdueseD8OS-3" value="Start Web Server" style="rounded=1;whiteSpace=wrap;html=1;absoluteArcSize=1;arcSize=14;strokeWidth=2;" vertex="1" parent="1">
          <mxGeometry x="230" y="270" width="100" height="60" as="geometry" />
        </mxCell>
        <mxCell id="P6TgPcZEq9YdueseD8OS-19" style="edgeStyle=orthogonalEdgeStyle;rounded=0;orthogonalLoop=1;jettySize=auto;html=1;exitX=0.5;exitY=1;exitDx=0;exitDy=0;entryX=0.5;entryY=0;entryDx=0;entryDy=0;" edge="1" parent="1" source="P6TgPcZEq9YdueseD8OS-4" target="P6TgPcZEq9YdueseD8OS-18">
          <mxGeometry relative="1" as="geometry" />
        </mxCell>
        <mxCell id="P6TgPcZEq9YdueseD8OS-4" value="Start DB Server" style="rounded=1;whiteSpace=wrap;html=1;absoluteArcSize=1;arcSize=14;strokeWidth=2;" vertex="1" parent="1">
          <mxGeometry x="500" y="270" width="100" height="60" as="geometry" />
        </mxCell>
        <mxCell id="P6TgPcZEq9YdueseD8OS-26" style="edgeStyle=orthogonalEdgeStyle;rounded=0;orthogonalLoop=1;jettySize=auto;html=1;exitX=0.5;exitY=1;exitDx=0;exitDy=0;entryX=0.5;entryY=0;entryDx=0;entryDy=0;" edge="1" parent="1" source="P6TgPcZEq9YdueseD8OS-5" target="P6TgPcZEq9YdueseD8OS-13">
          <mxGeometry relative="1" as="geometry" />
        </mxCell>
        <mxCell id="P6TgPcZEq9YdueseD8OS-5" value="Start Elevator Prediction" style="rounded=1;whiteSpace=wrap;html=1;absoluteArcSize=1;arcSize=14;strokeWidth=2;" vertex="1" parent="1">
          <mxGeometry x="680" y="270" width="100" height="60" as="geometry" />
        </mxCell>
        <mxCell id="P6TgPcZEq9YdueseD8OS-13" value="Predict Number of People inside/outside" style="rounded=1;whiteSpace=wrap;html=1;absoluteArcSize=1;arcSize=14;strokeWidth=2;" vertex="1" parent="1">
          <mxGeometry x="670" y="370" width="120" height="80" as="geometry" />
        </mxCell>
        <mxCell id="P6TgPcZEq9YdueseD8OS-30" style="edgeStyle=orthogonalEdgeStyle;rounded=0;orthogonalLoop=1;jettySize=auto;html=1;exitX=0.5;exitY=1;exitDx=0;exitDy=0;entryX=0.5;entryY=0;entryDx=0;entryDy=0;" edge="1" parent="1" source="P6TgPcZEq9YdueseD8OS-18" target="P6TgPcZEq9YdueseD8OS-29">
          <mxGeometry relative="1" as="geometry" />
        </mxCell>
        <mxCell id="P6TgPcZEq9YdueseD8OS-18" value="TCP Socket connection" style="rounded=1;whiteSpace=wrap;html=1;absoluteArcSize=1;arcSize=14;strokeWidth=2;" vertex="1" parent="1">
          <mxGeometry x="500" y="380" width="100" height="60" as="geometry" />
        </mxCell>
        <mxCell id="P6TgPcZEq9YdueseD8OS-31" style="edgeStyle=orthogonalEdgeStyle;rounded=0;orthogonalLoop=1;jettySize=auto;html=1;exitX=0;exitY=0.5;exitDx=0;exitDy=0;exitPerimeter=0;entryX=1;entryY=0.5;entryDx=0;entryDy=0;" edge="1" parent="1" source="P6TgPcZEq9YdueseD8OS-27" target="P6TgPcZEq9YdueseD8OS-29">
          <mxGeometry relative="1" as="geometry" />
        </mxCell>
        <mxCell id="P6TgPcZEq9YdueseD8OS-34" style="edgeStyle=orthogonalEdgeStyle;rounded=0;orthogonalLoop=1;jettySize=auto;html=1;exitX=1;exitY=0.5;exitDx=0;exitDy=0;exitPerimeter=0;entryX=1;entryY=0.5;entryDx=0;entryDy=0;" edge="1" parent="1" source="P6TgPcZEq9YdueseD8OS-27" target="P6TgPcZEq9YdueseD8OS-13">
          <mxGeometry relative="1" as="geometry">
            <Array as="points">
              <mxPoint x="830" y="523" />
              <mxPoint x="830" y="410" />
            </Array>
          </mxGeometry>
        </mxCell>
        <mxCell id="P6TgPcZEq9YdueseD8OS-27" value="Is Time Interval&amp;nbsp;&lt;div&gt;exceeds 1s?&lt;/div&gt;" style="strokeWidth=2;html=1;shape=mxgraph.flowchart.decision;whiteSpace=wrap;" vertex="1" parent="1">
          <mxGeometry x="680" y="475" width="110" height="95" as="geometry" />
        </mxCell>
        <mxCell id="P6TgPcZEq9YdueseD8OS-28" style="edgeStyle=orthogonalEdgeStyle;rounded=0;orthogonalLoop=1;jettySize=auto;html=1;exitX=0.5;exitY=1;exitDx=0;exitDy=0;entryX=0.5;entryY=0;entryDx=0;entryDy=0;entryPerimeter=0;" edge="1" parent="1" source="P6TgPcZEq9YdueseD8OS-13" target="P6TgPcZEq9YdueseD8OS-27">
          <mxGeometry relative="1" as="geometry" />
        </mxCell>
        <mxCell id="P6TgPcZEq9YdueseD8OS-29" value="Waiting For SQL Store Command and Execute it" style="rounded=1;whiteSpace=wrap;html=1;absoluteArcSize=1;arcSize=14;strokeWidth=2;" vertex="1" parent="1">
          <mxGeometry x="500" y="492.5" width="100" height="60" as="geometry" />
        </mxCell>
        <mxCell id="P6TgPcZEq9YdueseD8OS-32" style="edgeStyle=orthogonalEdgeStyle;rounded=0;orthogonalLoop=1;jettySize=auto;html=1;exitX=0.5;exitY=1;exitDx=0;exitDy=0;exitPerimeter=0;" edge="1" parent="1" source="P6TgPcZEq9YdueseD8OS-27" target="P6TgPcZEq9YdueseD8OS-27">
          <mxGeometry relative="1" as="geometry" />
        </mxCell>
        <mxCell id="P6TgPcZEq9YdueseD8OS-33" style="edgeStyle=orthogonalEdgeStyle;rounded=0;orthogonalLoop=1;jettySize=auto;html=1;exitX=0;exitY=0.5;exitDx=0;exitDy=0;exitPerimeter=0;entryX=0;entryY=0.388;entryDx=0;entryDy=0;entryPerimeter=0;" edge="1" parent="1" source="P6TgPcZEq9YdueseD8OS-27" target="P6TgPcZEq9YdueseD8OS-13">
          <mxGeometry relative="1" as="geometry">
            <Array as="points">
              <mxPoint x="630" y="523" />
              <mxPoint x="630" y="401" />
            </Array>
          </mxGeometry>
        </mxCell>
        <mxCell id="P6TgPcZEq9YdueseD8OS-35" value="Yes" style="text;html=1;align=center;verticalAlign=middle;whiteSpace=wrap;rounded=0;" vertex="1" parent="1">
          <mxGeometry x="610" y="530" width="60" height="30" as="geometry" />
        </mxCell>
        <mxCell id="P6TgPcZEq9YdueseD8OS-36" value="No" style="text;html=1;align=center;verticalAlign=middle;whiteSpace=wrap;rounded=0;" vertex="1" parent="1">
          <mxGeometry x="840" y="450" width="60" height="30" as="geometry" />
        </mxCell>
        <mxCell id="P6TgPcZEq9YdueseD8OS-42" style="edgeStyle=orthogonalEdgeStyle;rounded=0;orthogonalLoop=1;jettySize=auto;html=1;exitX=0;exitY=0.5;exitDx=0;exitDy=0;exitPerimeter=0;entryX=1;entryY=0.5;entryDx=0;entryDy=0;" edge="1" parent="1" source="P6TgPcZEq9YdueseD8OS-37" target="P6TgPcZEq9YdueseD8OS-41">
          <mxGeometry relative="1" as="geometry" />
        </mxCell>
        <mxCell id="P6TgPcZEq9YdueseD8OS-37" value="Store Data into Database" style="strokeWidth=2;html=1;shape=mxgraph.flowchart.stored_data;whiteSpace=wrap;" vertex="1" parent="1">
          <mxGeometry x="500" y="600" width="100" height="60" as="geometry" />
        </mxCell>
        <mxCell id="P6TgPcZEq9YdueseD8OS-38" style="edgeStyle=orthogonalEdgeStyle;rounded=0;orthogonalLoop=1;jettySize=auto;html=1;exitX=0.5;exitY=1;exitDx=0;exitDy=0;entryX=0.5;entryY=0;entryDx=0;entryDy=0;entryPerimeter=0;" edge="1" parent="1" source="P6TgPcZEq9YdueseD8OS-29" target="P6TgPcZEq9YdueseD8OS-37">
          <mxGeometry relative="1" as="geometry" />
        </mxCell>
        <mxCell id="P6TgPcZEq9YdueseD8OS-53" style="edgeStyle=orthogonalEdgeStyle;rounded=0;orthogonalLoop=1;jettySize=auto;html=1;exitX=0.5;exitY=1;exitDx=0;exitDy=0;entryX=0.5;entryY=1;entryDx=0;entryDy=0;" edge="1" parent="1" source="P6TgPcZEq9YdueseD8OS-39" target="P6TgPcZEq9YdueseD8OS-48">
          <mxGeometry relative="1" as="geometry">
            <Array as="points">
              <mxPoint x="280" y="470" />
              <mxPoint x="100" y="470" />
            </Array>
          </mxGeometry>
        </mxCell>
        <mxCell id="P6TgPcZEq9YdueseD8OS-39" value="Waiting for HTTP Request and Reading data from database" style="rounded=1;whiteSpace=wrap;html=1;absoluteArcSize=1;arcSize=14;strokeWidth=2;" vertex="1" parent="1">
          <mxGeometry x="230" y="370" width="100" height="60" as="geometry" />
        </mxCell>
        <mxCell id="P6TgPcZEq9YdueseD8OS-54" style="edgeStyle=orthogonalEdgeStyle;rounded=0;orthogonalLoop=1;jettySize=auto;html=1;exitX=0.5;exitY=0;exitDx=0;exitDy=0;entryX=1;entryY=0.5;entryDx=0;entryDy=0;" edge="1" parent="1" source="P6TgPcZEq9YdueseD8OS-41" target="P6TgPcZEq9YdueseD8OS-39">
          <mxGeometry relative="1" as="geometry" />
        </mxCell>
        <mxCell id="P6TgPcZEq9YdueseD8OS-41" value="MariaDB" style="shape=datastore;whiteSpace=wrap;html=1;" vertex="1" parent="1">
          <mxGeometry x="400" y="460" width="60" height="60" as="geometry" />
        </mxCell>
        <mxCell id="P6TgPcZEq9YdueseD8OS-49" value="" style="edgeStyle=orthogonalEdgeStyle;rounded=0;orthogonalLoop=1;jettySize=auto;html=1;" edge="1" parent="1" source="P6TgPcZEq9YdueseD8OS-48" target="P6TgPcZEq9YdueseD8OS-39">
          <mxGeometry relative="1" as="geometry" />
        </mxCell>
        <mxCell id="P6TgPcZEq9YdueseD8OS-48" value="External Users Access gateway with HTTP request" style="html=1;dashed=0;whiteSpace=wrap;" vertex="1" parent="1">
          <mxGeometry x="40" y="375" width="120" height="50" as="geometry" />
        </mxCell>
        <mxCell id="P6TgPcZEq9YdueseD8OS-52" value="" style="verticalLabelPosition=bottom;sketch=0;aspect=fixed;html=1;verticalAlign=top;strokeColor=none;align=center;outlineConnect=0;shape=mxgraph.citrix.browser;" vertex="1" parent="1">
          <mxGeometry x="70" y="290" width="47.5" height="72.5" as="geometry" />
        </mxCell>
        <mxCell id="P6TgPcZEq9YdueseD8OS-56" value="Response index page for user" style="text;html=1;align=center;verticalAlign=middle;whiteSpace=wrap;rounded=0;" vertex="1" parent="1">
          <mxGeometry x="150" y="492.5" width="100" height="37" as="geometry" />
        </mxCell>
      </root>
    </mxGraphModel>
  </diagram>
</mxfile>
